<svg xmlns="http://www.w3.org/2000/svg" width="169.814" height="142.432" viewBox="0 0 169.814 142.432">
  <g id="그룹_1128" data-name="그룹 1128" transform="translate(-1079.667 -406.693)">
    <g id="패스_3519" data-name="패스 3519" transform="translate(-94.543)" fill="#ec9984" stroke-miterlimit="10">
      <path d="M 1274.652587890625 428.3985595703125 C 1271.044189453125 428.3986511230469 1267.552368164062 427.798828125 1264.554565429688 426.6639404296875 C 1261.9560546875 425.68017578125 1259.880981445312 424.3486328125 1258.488525390625 422.7802734375 C 1261.144409179688 422.7385559082031 1263.556274414062 422.5551452636719 1263.583374023438 422.5530700683594 L 1264.74072265625 422.4640502929688 L 1263.880981445312 421.6841735839844 C 1263.8369140625 421.6441345214844 1259.847534179688 417.9739379882812 1259.2998046875 413.9179382324219 C 1261.416137695312 415.8824157714844 1263.084594726562 416.9280700683594 1263.1640625 416.9774169921875 L 1263.912963867188 417.4429626464844 L 1263.927856445312 416.5612487792969 L 1264.026489257812 410.7455749511719 C 1264.372436523438 411.018798828125 1264.821044921875 411.3385925292969 1265.366821289062 411.6580810546875 C 1266.65185546875 412.4102478027344 1268.749755859375 413.3068542480469 1271.446533203125 413.3068542480469 C 1273.361694335938 413.3068542480469 1275.340209960938 412.859130859375 1277.327026367188 411.9761047363281 C 1280.337280273438 410.6382446289062 1282.1826171875 409.6080932617188 1283.529907226562 408.8558959960938 C 1285.697387695312 407.6459350585938 1286.508422851562 407.1931762695312 1288.908935546875 407.1931762695312 C 1289.233154296875 407.1931762695312 1289.582885742188 407.2017211914062 1289.978149414062 407.2192993164062 C 1292.677124023438 407.3392639160156 1295.276733398438 408.6771850585938 1296.93212890625 410.7982482910156 C 1297.677368164062 411.7531433105469 1298.197631835938 412.8208618164062 1298.478637695312 413.9717712402344 C 1298.719604492188 414.9585266113281 1298.778442382812 415.9880676269531 1298.655029296875 417.0418701171875 C 1297.396484375 416.2367553710938 1295.430053710938 415.7116394042969 1293.514038085938 415.7116394042969 C 1291.458740234375 415.7116394042969 1289.788208007812 416.3069152832031 1288.810180664062 417.3878479003906 C 1288.2412109375 418.0167846679688 1287.688110351562 418.9589538574219 1287.047729492188 420.0498657226562 C 1285.077270507812 423.4069213867188 1282.37841796875 428.0045776367188 1276.509643554688 428.3448181152344 C 1275.894775390625 428.3804321289062 1275.27001953125 428.3985290527344 1274.652587890625 428.3985595703125 Z" stroke="none"/>
      <path d="M 1288.908935546875 407.6931762695312 L 1288.908935546875 407.6931762695312 C 1286.638427734375 407.6932067871094 1285.916625976562 408.09619140625 1283.773681640625 409.29248046875 C 1282.417846679688 410.0493469238281 1280.56103515625 411.0859069824219 1277.530151367188 412.4330139160156 C 1275.47900390625 413.3446350097656 1273.43212890625 413.8068542480469 1271.446533203125 413.8068542480469 C 1268.330444335938 413.8068542480469 1265.97021484375 412.6860961914062 1264.510131835938 411.7149353027344 L 1264.427856445312 416.5697021484375 L 1264.39794921875 418.3331604003906 L 1262.900024414062 417.4020690917969 C 1262.834594726562 417.3613891601562 1261.712280273438 416.6581420898438 1260.150756835938 415.3391418457031 C 1261.25244140625 418.5826110839844 1264.18017578125 421.2804565429688 1264.216918945312 421.3138122558594 L 1265.9365234375 422.87353515625 L 1263.621704101562 423.0516052246094 C 1263.526977539062 423.0588684082031 1261.80810546875 423.1895751953125 1259.663940429688 423.2536926269531 C 1260.952880859375 424.4154357910156 1262.670288085938 425.4158935546875 1264.731567382812 426.1962585449219 C 1267.67333984375 427.3099060058594 1271.103881835938 427.8985595703125 1274.652587890625 427.8985595703125 C 1275.260009765625 427.8985595703125 1275.875122070312 427.8807373046875 1276.480712890625 427.8456420898438 C 1278.945068359375 427.7027893066406 1281.035400390625 426.767578125 1282.871337890625 424.9865417480469 C 1284.49462890625 423.4116516113281 1285.671142578125 421.4072875976562 1286.616577148438 419.7967529296875 C 1287.270874023438 418.6820678710938 1287.8359375 417.7194213867188 1288.439453125 417.0523681640625 C 1289.513549804688 415.8653564453125 1291.315673828125 415.2116394042969 1293.514038085938 415.2116394042969 C 1295.21630859375 415.2116394042969 1296.919067382812 415.5935668945312 1298.21630859375 416.2239685058594 C 1298.288330078125 413.909912109375 1297.390747070312 412.1986083984375 1296.537963867188 411.1058654785156 C 1294.971313476562 409.0985412597656 1292.510864257812 407.8323669433594 1289.955932617188 407.7188110351562 C 1289.568115234375 407.7015686035156 1289.2255859375 407.6931762695312 1288.908935546875 407.6931762695312 M 1288.908935546875 406.6931762695312 C 1289.242797851562 406.6931762695312 1289.604248046875 406.7021789550781 1290.000366210938 406.7197875976562 C 1295.267944335938 406.9539184570312 1300.3017578125 411.6362915039062 1299.013916015625 417.9574584960938 C 1297.992919921875 416.936279296875 1295.710571289062 416.2116394042969 1293.514038085938 416.2116394042969 C 1291.807739257812 416.2116394042969 1290.153442382812 416.6485900878906 1289.180908203125 417.7233276367188 C 1286.956909179688 420.1815795898438 1284.615600585938 428.375732421875 1276.53857421875 428.8439636230469 C 1275.908081054688 428.8805236816406 1275.278076171875 428.8985290527344 1274.652587890625 428.8985290527344 C 1267.264770507812 428.8985290527344 1260.371948242188 426.3896484375 1257.4580078125 422.2886352539062 C 1260.50146484375 422.2886352539062 1263.545043945312 422.0545349121094 1263.545043945312 422.0545349121094 C 1263.545043945312 422.0545349121094 1258.511596679688 417.4892272949219 1258.74560546875 412.6898193359375 C 1261.262329101562 415.2065734863281 1263.427978515625 416.5527648925781 1263.427978515625 416.5527648925781 L 1263.545043945312 409.6463012695312 C 1263.545043945312 409.6463012695312 1266.44287109375 412.8068542480469 1271.446533203125 412.8068542480469 C 1273.114868164062 412.8068542480469 1275.016357421875 412.4559020996094 1277.1240234375 411.5191955566406 C 1284.918334960938 408.0549926757812 1284.803833007812 406.6932373046875 1288.908935546875 406.6931762695312 Z" stroke="none" fill="#002e4e"/>
    </g>
    <rect id="사각형_489" data-name="사각형 489" width="14.476" height="22.384" rx="7.238" transform="translate(1190.385 413.555)" fill="none" stroke="#002e4e" stroke-miterlimit="10" stroke-width="1"/>
    <path id="패스_3520" data-name="패스 3520" d="M1299,490.873a8.479,8.479,0,0,0,.656,3.278h-1.4l-8.428-8.428h-3.479c1.63-10.25,5.385-22.752,14.01-28.68a.32.32,0,0,0,.052-.033l2.5,26.7A8.5,8.5,0,0,0,1299,490.873Z" transform="translate(-109.906 -26.757)" fill="#80e0dd" stroke="#002e4e" stroke-miterlimit="10" stroke-width="1"/>
    <line id="선_35" data-name="선 35" x1="0.028" y1="0.295" transform="translate(1193.009 456.957)" fill="none" stroke="#002e4e" stroke-miterlimit="10" stroke-width="1"/>
    <path id="패스_3521" data-name="패스 3521" d="M1293.37,457.08c-1.021.637-17.343,11.083-20.134,28.68-.009.052-.019.108-.028.159" transform="translate(-102.918 -26.794)" fill="none" stroke="#002e4e" stroke-miterlimit="10" stroke-width="1.5"/>
    <circle id="타원_36" data-name="타원 36" cx="4.995" cy="4.995" r="4.995" transform="translate(1192.629 459.123)" fill="none" stroke="#002e4e" stroke-miterlimit="10" stroke-width="1"/>
    <circle id="타원_37" data-name="타원 37" cx="4.995" cy="4.995" r="4.995" transform="translate(1192.629 459.123)" fill="#dde0e6" stroke="#002e4e" stroke-miterlimit="10" stroke-width="1"/>
    <path id="패스_3522" data-name="패스 3522" d="M1330.427,519.652a8.518,8.518,0,1,1-8.522-8.522A8.479,8.479,0,0,1,1330.427,519.652Z" transform="translate(-124.279 -55.536)" fill="none" stroke="#002e4e" stroke-miterlimit="10" stroke-width="1"/>
    <path id="패스_3523" data-name="패스 3523" d="M1284.218,528.083h-5.3l-6.007-6.007h-13.584a1.873,1.873,0,0,1-1.873-1.873h0a1.873,1.873,0,0,1,1.873-1.873h15.133Z" transform="translate(-94.543 -59.364)" fill="#002e4e" stroke="#002e4e" stroke-miterlimit="10" stroke-width="1"/>
    <path id="패스_3524" data-name="패스 3524" d="M1291.559,531.022a2.642,2.642,0,0,0-2.51,2.646v4.762H1283.7a95.6,95.6,0,0,1,.717-12.1h2.449Z" transform="translate(-108.496 -63.619)" fill="#80e0dd" stroke="#002e4e" stroke-miterlimit="10" stroke-width="1"/>
    <path id="패스_3525" data-name="패스 3525" d="M1285.758,518.33c-.206,1.292-.379,2.547-.52,3.746" transform="translate(-109.315 -59.364)" fill="none" stroke="#002e4e" stroke-miterlimit="10" stroke-width="1"/>
    <path id="패스_3526" data-name="패스 3526" d="M1345.225,490.873a8.479,8.479,0,0,1-.656,3.278h1.4l8.428-8.428h3.479c-1.629-10.25-5.385-22.752-14.01-28.68a.314.314,0,0,1-.052-.033l-2.505,26.7A8.5,8.5,0,0,1,1345.225,490.873Z" transform="translate(-139.135 -26.757)" fill="#80e0dd" stroke="#002e4e" stroke-miterlimit="10" stroke-width="1"/>
    <path id="패스_3527" data-name="패스 3527" d="M1366.937,485.919c-.009-.052-.019-.108-.028-.159-2.791-17.6-19.114-28.043-20.134-28.68" transform="translate(-142.039 -26.794)" fill="none" stroke="#002e4e" stroke-miterlimit="10" stroke-width="1.5"/>
    <path id="패스_3528" data-name="패스 3528" d="M1348.435,528.083h5.3l6.008-6.007h13.583a1.873,1.873,0,0,0,1.873-1.873h0a1.873,1.873,0,0,0-1.873-1.873h-15.133Z" transform="translate(-142.921 -59.364)" fill="#002e4e" stroke="#002e4e" stroke-miterlimit="10" stroke-width="1"/>
    <path id="패스_3529" data-name="패스 3529" d="M1362.555,531.022a2.642,2.642,0,0,1,2.51,2.646v4.762h5.347a95.62,95.62,0,0,0-.716-12.1h-2.449Z" transform="translate(-150.43 -63.619)" fill="#80e0dd" stroke="#002e4e" stroke-miterlimit="10" stroke-width="1"/>
    <path id="패스_3530" data-name="패스 3530" d="M1377.215,522.076c-.141-1.2-.314-2.454-.52-3.746" transform="translate(-157.949 -59.364)" fill="none" stroke="#002e4e" stroke-miterlimit="10" stroke-width="1"/>
    <path id="패스_3531" data-name="패스 3531" d="M1288.738,568s-9.521,4.214-10.613,17.169c0,0,.039,9.755,6.711,15.725,0-11-1.171-16.935,3.9-22.007Z" transform="translate(-105.533 -85.777)" fill="#dde0e6" stroke="#002e4e" stroke-miterlimit="10" stroke-width="1"/>
    <path id="패스_3532" data-name="패스 3532" d="M1363.958,568s9.521,4.214,10.613,17.169c0,0-.039,9.755-6.712,15.725,0-11,1.171-16.935-3.9-22.007Z" transform="translate(-151.176 -85.777)" fill="#dde0e6" stroke="#002e4e" stroke-miterlimit="10" stroke-width="1"/>
    <rect id="사각형_490" data-name="사각형 490" width="4.058" height="36.757" transform="translate(1183.205 482.223)" fill="none" stroke="#002e4e" stroke-miterlimit="10" stroke-width="1"/>
    <rect id="사각형_491" data-name="사각형 491" width="4.058" height="36.757" transform="translate(1208.724 482.223)" fill="none" stroke="#002e4e" stroke-miterlimit="10" stroke-width="1"/>
    <rect id="사각형_492" data-name="사각형 492" width="19.744" height="4.37" transform="translate(1163.461 514.609)" fill="#dde0e6" stroke="#002e4e" stroke-miterlimit="10" stroke-width="1"/>
    <rect id="사각형_493" data-name="사각형 493" width="12.759" height="4.37" transform="translate(1212.782 514.609)" fill="#dde0e6" stroke="#002e4e" stroke-miterlimit="10" stroke-width="1"/>
    <path id="패스_3533" data-name="패스 3533" d="M1330.917,568v14.2h-3.395v-5.151a7.335,7.335,0,0,0-14.67,0V582.2h-3.395V568Z" transform="translate(-122.195 -85.777)" fill="#dde0e6" stroke="#002e4e" stroke-miterlimit="10" stroke-width="1"/>
    <path id="패스_3534" data-name="패스 3534" d="M1331.378,579v5.151h-14.67V579a7.335,7.335,0,0,1,14.67,0Z" transform="translate(-126.05 -87.729)" fill="none" stroke="#002e4e" stroke-miterlimit="10" stroke-width="1"/>
    <path id="패스_3535" data-name="패스 3535" d="M1331.378,598.33v35.352a7.335,7.335,0,1,1-14.67,0V598.33Z" transform="translate(-126.05 -101.905)" fill="#dde0e6" stroke="#002e4e" stroke-miterlimit="10" stroke-width="1"/>
    <line id="선_36" data-name="선 36" y2="42.226" transform="translate(1194.911 496.424)" fill="none" stroke="#002e4e" stroke-miterlimit="10" stroke-width="1"/>
    <line id="선_37" data-name="선 37" y2="42.226" transform="translate(1199.75 496.424)" fill="none" stroke="#002e4e" stroke-miterlimit="10" stroke-width="1"/>
    <path id="패스_3536" data-name="패스 3536" d="M1329.15,538.985V548.5a2.652,2.652,0,0,1-2.65,2.655h-28.722a2.652,2.652,0,0,1-2.65-2.655v-9.519a2.642,2.642,0,0,1,2.51-2.646.705.705,0,0,1,.14-.009H1326.5A2.652,2.652,0,0,1,1329.15,538.985Z" transform="translate(-114.575 -68.936)" fill="#fff" stroke="#002e4e" stroke-miterlimit="10" stroke-width="1"/>
    <line id="선_38" data-name="선 38" x2="169.814" transform="translate(1079.667 538.65)" fill="none" stroke="#002e4e" stroke-miterlimit="10" stroke-width="2"/>
    <line id="선_39" data-name="선 39" x2="117.644" transform="translate(1105.751 548.212)" fill="none" stroke="#002e4e" stroke-miterlimit="10" stroke-width="1.825" stroke-dasharray="6.467 7.545"/>
    <path id="패스_3537" data-name="패스 3537" d="M1208.3,549.289v42.844H1164V549.289l8.269-2.767a43.758,43.758,0,0,1,27.771,0l.492.164Z" transform="translate(-44.845 -73.153)" fill="none" stroke="#002e4e" stroke-miterlimit="10" stroke-width="1"/>
    <path id="패스_3538" data-name="패스 3538" d="M1164,555s22.319,18.261,0,42.844" transform="translate(-44.845 -78.864)" fill="none" stroke="#002e4e" stroke-miterlimit="10" stroke-width="1"/>
    <path id="패스_3539" data-name="패스 3539" d="M1246.4,555s-24.212,21.071,0,42.844" transform="translate(-82.943 -78.864)" fill="none" stroke="#002e4e" stroke-miterlimit="10" stroke-width="1"/>
    <path id="패스_3540" data-name="패스 3540" d="M1139.894,566.333h-7.33a9.164,9.164,0,0,0-8.851,6.789l-5.046,18.808h21.227" transform="translate(-20.739 -84.891)" fill="none" stroke="#002e4e" stroke-miterlimit="10" stroke-width="1"/>
    <path id="사각형_494" data-name="사각형 494" d="M0,0H13.813a0,0,0,0,1,0,0V24.7a6.906,6.906,0,0,1-6.906,6.906h0A6.906,6.906,0,0,1,0,24.7V0A0,0,0,0,1,0,0Z" transform="translate(1103.118 507.039)" fill="#dde0e6" stroke="#002e4e" stroke-miterlimit="10" stroke-width="1"/>
    <line id="선_40" data-name="선 40" y2="31.227" transform="translate(1107.605 507.039)" fill="none" stroke="#002e4e" stroke-miterlimit="10" stroke-width="1"/>
    <line id="선_41" data-name="선 41" y2="31.227" transform="translate(1112.287 507.039)" fill="none" stroke="#002e4e" stroke-miterlimit="10" stroke-width="1"/>
    <line id="선_42" data-name="선 42" x1="0.005" y2="0.005" transform="translate(1130.153 452.49)" fill="none" stroke="#002e4e" stroke-miterlimit="10" stroke-width="1"/>
    <path id="패스_3541" data-name="패스 3541" d="M1196.6,483.75s-.1.056-.286.159" transform="translate(-62.027 -40.976)" fill="none" stroke="#002e4e" stroke-miterlimit="10" stroke-width="1"/>
    <path id="패스_3542" data-name="패스 3542" d="M1202.573,493.087c.093.3,3.741,11.776,2.346,21.506l-.492-.164a43.757,43.757,0,0,0-27.771,0c-1.662-9.894,2.617-20.593,2.73-20.874l-3.624,4.327-1.227-1.227-2.285-2.285c3.015-5.408,9.8-9.524,11.266-10.376a5.423,5.423,0,0,0,2.271,3.292l2.238,1.5a5.455,5.455,0,0,0,6.064,0l2.243-1.5a5.446,5.446,0,0,0,2.29-3.376c.782.389,9.187,4.7,10.971,11.28l-3.98,1.466A6.218,6.218,0,0,0,1202.573,493.087Z" transform="translate(-49.232 -41.061)" fill="#b1ea8c" stroke="#002e4e" stroke-miterlimit="10" stroke-width="1"/>
    <line id="선_43" data-name="선 43" x1="0.005" y1="0.005" transform="translate(1153.336 452.022)" fill="none" stroke="#002e4e" stroke-miterlimit="10" stroke-width="1"/>
    <path id="패스_3543" data-name="패스 3543" d="M1228.5,483.878l-.061-.028" transform="translate(-79.112 -41.029)" fill="none" stroke="#002e4e" stroke-miterlimit="10" stroke-width="1"/>
    <path id="패스_3544" data-name="패스 3544" d="M1153,507.073l-4.451,3.784a6.126,6.126,0,0,1-7.88.046l-8.917-7.4" transform="translate(-27.696 -51.478)" fill="none" stroke="#002e4e" stroke-miterlimit="10" stroke-width="1"/>
    <path id="패스_3545" data-name="패스 3545" d="M1248.733,509.2s2.583,10.5,1.53,18.841" transform="translate(-89.903 -54.511)" fill="none" stroke="#002e4e" stroke-miterlimit="10" stroke-width="1"/>
    <path id="패스_3546" data-name="패스 3546" d="M1194.669,450.107s7.76.585,9.6-3.629a19.336,19.336,0,0,0,5.775,4.168h3.906a3.2,3.2,0,0,0,3.2-3.2h0c0-9.562-10.09-16.073-18.6-11.721C1194.373,437.86,1191.9,442.074,1194.669,450.107Z" transform="translate(-60.531 -14.708)" fill="#ffe35a" stroke="#002e4e" stroke-miterlimit="10" stroke-width="1"/>
    <path id="패스_3547" data-name="패스 3547" d="M1211.372,456.854v7.436a5.517,5.517,0,0,1-.122,1.147,5.445,5.445,0,0,1-2.29,3.376l-2.243,1.5a5.455,5.455,0,0,1-6.064,0l-2.238-1.5a5.423,5.423,0,0,1-2.271-3.292,5.121,5.121,0,0,1-.145-1.231v-7.436a7.686,7.686,0,0,1,15.372,0Z" transform="translate(-61.862 -22.588)" fill="none" stroke="#002e4e" stroke-miterlimit="10" stroke-width="1"/>
  </g>
</svg>
