<svg xmlns="http://www.w3.org/2000/svg" width="124.43" height="143.088" viewBox="0 0 124.43 143.088">
  <g id="그룹_1119" data-name="그룹 1119" transform="translate(-1193.916 -406.693)">
    <g id="패스_3500" data-name="패스 3500" transform="translate(-33.565)" fill="#ec9984" stroke-miterlimit="10">
      <path d="M 1274.782348632812 428.566162109375 C 1271.146240234375 428.5662536621094 1267.627685546875 427.9618225097656 1264.606811523438 426.8182067871094 C 1261.984741210938 425.8255310058594 1259.891357421875 424.4813842773438 1258.488037109375 422.8980712890625 C 1261.167114257812 422.8562927246094 1263.60205078125 422.671142578125 1263.62939453125 422.6690368652344 L 1264.786865234375 422.5799865722656 L 1263.927001953125 421.8001403808594 C 1263.882446289062 421.7597351074219 1259.85498046875 418.054931640625 1259.30859375 413.9625244140625 C 1261.444458007812 415.9464111328125 1263.129150390625 417.0020751953125 1263.209228515625 417.0518493652344 L 1263.958129882812 417.5173950195312 L 1263.973022460938 416.6356811523438 L 1264.072509765625 410.7684631347656 C 1264.421752929688 411.044677734375 1264.875610351562 411.36865234375 1265.428588867188 411.6923217773438 C 1266.722900390625 412.4499206542969 1268.8359375 413.35302734375 1271.55224609375 413.35302734375 C 1273.481323242188 413.35302734375 1275.474243164062 412.9020385742188 1277.4755859375 412.0125732421875 C 1280.50830078125 410.6646728515625 1282.367553710938 409.6267700195312 1283.72509765625 408.868896484375 C 1285.909545898438 407.6494750976562 1286.726806640625 407.1931762695312 1289.146484375 407.1931762695312 C 1289.47314453125 407.1931762695312 1289.825561523438 407.2017822265625 1290.223876953125 407.219482421875 C 1292.9443359375 407.3403930664062 1295.564575195312 408.6889343261719 1297.233032226562 410.8267822265625 C 1297.984252929688 411.7893371582031 1298.5087890625 412.8656005859375 1298.7919921875 414.0257263183594 C 1299.035278320312 415.0223083496094 1299.094360351562 416.0620422363281 1298.969116210938 417.1264038085938 C 1297.701782226562 416.3137817382812 1295.718627929688 415.7835083007812 1293.7861328125 415.7835083007812 C 1291.716430664062 415.7835083007812 1290.034423828125 416.3828735351562 1289.0498046875 417.4711608886719 C 1288.476684570312 418.1045532226562 1287.919555664062 419.0536804199219 1287.274536132812 420.1526794433594 C 1285.28857421875 423.5357971191406 1282.568969726562 428.1691284179688 1276.653686523438 428.5120239257812 C 1276.0341796875 428.5479125976562 1275.404541015625 428.5661315917969 1274.782348632812 428.566162109375 Z" stroke="none"/>
      <path d="M 1289.146484375 407.6931762695312 L 1289.146484375 407.6931762695312 C 1286.85693359375 407.6932067871094 1286.129150390625 408.0994873046875 1283.96875 409.3055114746094 C 1282.602783203125 410.0680236816406 1280.732177734375 411.1123352050781 1277.678588867188 412.469482421875 C 1275.612915039062 413.3875427246094 1273.5517578125 413.85302734375 1271.55224609375 413.85302734375 C 1268.405883789062 413.85302734375 1266.025390625 412.7186279296875 1264.55615234375 411.7389831542969 L 1264.473022460938 416.6441345214844 L 1264.443115234375 418.4075927734375 L 1262.945190429688 417.4765014648438 C 1262.879028320312 417.4353332519531 1261.739013671875 416.7210693359375 1260.1552734375 415.3811340332031 C 1261.259399414062 418.6626281738281 1264.225830078125 421.3960571289062 1264.262817382812 421.4297790527344 L 1265.982543945312 422.989501953125 L 1263.667724609375 423.1675415039062 C 1263.572021484375 423.1749267578125 1261.83056640625 423.3073425292969 1259.66162109375 423.3717346191406 C 1260.962524414062 424.5483093261719 1262.698608398438 425.5611267089844 1264.783813476562 426.3505249023438 C 1267.748657226562 427.472900390625 1271.2060546875 428.066162109375 1274.782348632812 428.066162109375 C 1275.394653320312 428.066162109375 1276.014526367188 428.0482177734375 1276.624755859375 428.0128479003906 C 1279.109619140625 427.8688049316406 1281.217407226562 426.9258422851562 1283.068481445312 425.1300964355469 C 1284.704833984375 423.5426025390625 1285.890502929688 421.5226440429688 1286.84326171875 419.8995666503906 C 1287.502319335938 418.7767944335938 1288.071533203125 417.8071594238281 1288.678955078125 417.1357116699219 C 1289.759643554688 415.9413146972656 1291.573364257812 415.2835083007812 1293.7861328125 415.2835083007812 C 1295.5048828125 415.2835083007812 1297.223999023438 415.6700439453125 1298.531127929688 416.3077697753906 C 1298.607055664062 413.9683227539062 1297.700317382812 412.2382507324219 1296.8388671875 411.1344299316406 C 1295.259155273438 409.1102905273438 1292.777954101562 407.83349609375 1290.20166015625 407.718994140625 C 1289.810913085938 407.7015991210938 1289.4658203125 407.6931762695312 1289.146484375 407.6931762695312 M 1289.146484375 406.6931762695312 C 1289.482788085938 406.6931762695312 1289.847045898438 406.7022399902344 1290.24609375 406.719970703125 C 1295.553466796875 406.9558715820312 1300.625122070312 411.673583984375 1299.32763671875 418.04248046875 C 1298.298828125 417.0136108398438 1295.999267578125 416.2835083007812 1293.7861328125 416.2835083007812 C 1292.067016601562 416.2835083007812 1290.400268554688 416.7237854003906 1289.420532226562 417.8066101074219 C 1287.1796875 420.2834167480469 1284.82080078125 428.5394287109375 1276.6826171875 429.0111694335938 C 1276.04736328125 429.0480041503906 1275.41259765625 429.066162109375 1274.782348632812 429.066162109375 C 1267.338745117188 429.066162109375 1260.393920898438 426.538330078125 1257.4580078125 422.4063720703125 C 1260.524536132812 422.4063720703125 1263.591064453125 422.1705017089844 1263.591064453125 422.1705017089844 C 1263.591064453125 422.1705017089844 1258.51953125 417.5707397460938 1258.75537109375 412.7350769042969 C 1261.291137695312 415.2708435058594 1263.47314453125 416.627197265625 1263.47314453125 416.627197265625 L 1263.591064453125 409.6685791015625 C 1263.591064453125 409.6685791015625 1266.510864257812 412.85302734375 1271.55224609375 412.85302734375 C 1273.233154296875 412.85302734375 1275.14892578125 412.4994201660156 1277.2724609375 411.5556640625 C 1285.125732421875 408.0652770996094 1285.010375976562 406.6932067871094 1289.146484375 406.6931762695312 Z" stroke="none" fill="#002e4e"/>
    </g>
    <rect id="사각형_484" data-name="사각형 484" width="14.586" height="22.553" rx="7.293" transform="translate(1251.57 413.607)" fill="none" stroke="#002e4e" stroke-miterlimit="10" stroke-width="1"/>
    <path id="패스_3501" data-name="패스 3501" d="M1299.1,491.129a8.542,8.542,0,0,0,.66,3.3h-1.415l-8.492-8.492h-3.505c1.642-10.327,5.425-22.923,14.115-28.9a.319.319,0,0,0,.052-.033l2.524,26.905A8.565,8.565,0,0,0,1299.1,491.129Z" transform="translate(-48.825 -26.579)" fill="#80e0dd" stroke="#002e4e" stroke-miterlimit="10" stroke-width="1"/>
    <line id="선_29" data-name="선 29" x1="0.028" y1="0.297" transform="translate(1254.214 457.336)" fill="none" stroke="#002e4e" stroke-miterlimit="10" stroke-width="1"/>
    <path id="패스_3502" data-name="패스 3502" d="M1293.522,457.08c-1.028.642-17.474,11.167-20.286,28.9-.01.052-.019.108-.028.16" transform="translate(-41.884 -26.616)" fill="none" stroke="#002e4e" stroke-miterlimit="10" stroke-width="1.5"/>
    <circle id="타원_34" data-name="타원 34" cx="5.032" cy="5.032" r="5.032" transform="translate(1253.831 459.519)" fill="none" stroke="#002e4e" stroke-miterlimit="10" stroke-width="1"/>
    <circle id="타원_35" data-name="타원 35" cx="5.032" cy="5.032" r="5.032" transform="translate(1253.831 459.519)" fill="#dde0e6" stroke="#002e4e" stroke-miterlimit="10" stroke-width="1"/>
    <path id="패스_3503" data-name="패스 3503" d="M1330.555,519.716a8.582,8.582,0,1,1-8.586-8.586A8.543,8.543,0,0,1,1330.555,519.716Z" transform="translate(-63.103 -55.167)" fill="none" stroke="#002e4e" stroke-miterlimit="10" stroke-width="1"/>
    <path id="패스_3504" data-name="패스 3504" d="M1284.42,528.157h-5.336l-6.053-6.053h-13.686a1.887,1.887,0,0,1-1.887-1.887h0a1.887,1.887,0,0,1,1.887-1.887h15.248Z" transform="translate(-33.565 -58.97)" fill="#002e4e" stroke="#002e4e" stroke-miterlimit="10" stroke-width="1"/>
    <path id="패스_3505" data-name="패스 3505" d="M1291.619,531.057a2.662,2.662,0,0,0-2.529,2.666v4.8H1283.7a96.361,96.361,0,0,1,.722-12.191h2.467Z" transform="translate(-47.425 -63.196)" fill="#80e0dd" stroke="#002e4e" stroke-miterlimit="10" stroke-width="1"/>
    <path id="패스_3506" data-name="패스 3506" d="M1285.762,518.33c-.208,1.3-.382,2.566-.524,3.774" transform="translate(-48.239 -58.97)" fill="none" stroke="#002e4e" stroke-miterlimit="10" stroke-width="1"/>
    <path id="패스_3507" data-name="패스 3507" d="M1345.254,491.129a8.54,8.54,0,0,1-.661,3.3h1.415l8.492-8.492h3.505c-1.642-10.327-5.425-22.923-14.115-28.9a.324.324,0,0,1-.052-.033l-2.524,26.905A8.565,8.565,0,0,1,1345.254,491.129Z" transform="translate(-77.86 -26.579)" fill="#80e0dd" stroke="#002e4e" stroke-miterlimit="10" stroke-width="1"/>
    <path id="패스_3508" data-name="패스 3508" d="M1367.089,486.136c-.009-.052-.019-.109-.028-.16-2.812-17.729-19.258-28.254-20.286-28.9" transform="translate(-80.745 -26.616)" fill="none" stroke="#002e4e" stroke-miterlimit="10" stroke-width="1.5"/>
    <path id="패스_3509" data-name="패스 3509" d="M1348.435,528.157h5.336l6.053-6.053h13.686a1.887,1.887,0,0,0,1.887-1.887h0a1.887,1.887,0,0,0-1.887-1.887h-15.248Z" transform="translate(-81.621 -58.97)" fill="#002e4e" stroke="#002e4e" stroke-miterlimit="10" stroke-width="1"/>
    <path id="패스_3510" data-name="패스 3510" d="M1362.555,531.057a2.662,2.662,0,0,1,2.529,2.666v4.8h5.388a96.361,96.361,0,0,0-.722-12.191h-2.467Z" transform="translate(-89.08 -63.196)" fill="#80e0dd" stroke="#002e4e" stroke-miterlimit="10" stroke-width="1"/>
    <path id="패스_3511" data-name="패스 3511" d="M1377.219,522.1c-.142-1.208-.316-2.472-.524-3.774" transform="translate(-96.549 -58.97)" fill="none" stroke="#002e4e" stroke-miterlimit="10" stroke-width="1"/>
    <path id="패스_3512" data-name="패스 3512" d="M1288.818,568s-9.593,4.246-10.693,17.3c0,0,.039,9.828,6.762,15.844,0-11.087-1.179-17.063,3.931-22.173Z" transform="translate(-44.482 -85.207)" fill="#dde0e6" stroke="#002e4e" stroke-miterlimit="10" stroke-width="1"/>
    <path id="패스_3513" data-name="패스 3513" d="M1363.958,568s9.593,4.246,10.694,17.3c0,0-.04,9.828-6.762,15.844,0-11.087,1.179-17.063-3.931-22.173Z" transform="translate(-89.821 -85.207)" fill="#dde0e6" stroke="#002e4e" stroke-miterlimit="10" stroke-width="1"/>
    <rect id="사각형_485" data-name="사각형 485" width="4.089" height="37.034" transform="translate(1244.337 482.793)" fill="none" stroke="#002e4e" stroke-miterlimit="10" stroke-width="1"/>
    <rect id="사각형_486" data-name="사각형 486" width="4.089" height="37.034" transform="translate(1270.048 482.793)" fill="none" stroke="#002e4e" stroke-miterlimit="10" stroke-width="1"/>
    <rect id="사각형_487" data-name="사각형 487" width="19.893" height="4.403" transform="translate(1224.444 515.424)" fill="#dde0e6" stroke="#002e4e" stroke-miterlimit="10" stroke-width="1"/>
    <rect id="사각형_488" data-name="사각형 488" width="12.856" height="4.403" transform="translate(1274.137 515.424)" fill="#dde0e6" stroke="#002e4e" stroke-miterlimit="10" stroke-width="1"/>
    <path id="패스_3514" data-name="패스 3514" d="M1331.079,568v14.309h-3.42v-5.189a7.39,7.39,0,0,0-14.781,0v5.189h-3.42V568Z" transform="translate(-61.033 -85.207)" fill="#dde0e6" stroke="#002e4e" stroke-miterlimit="10" stroke-width="1"/>
    <path id="패스_3515" data-name="패스 3515" d="M1331.489,579.058v5.189h-14.781v-5.189a7.39,7.39,0,0,1,14.781,0Z" transform="translate(-64.862 -87.145)" fill="none" stroke="#002e4e" stroke-miterlimit="10" stroke-width="1"/>
    <path id="패스_3516" data-name="패스 3516" d="M1331.489,598.33v35.619a7.39,7.39,0,1,1-14.781,0V598.33Z" transform="translate(-64.862 -101.228)" fill="#dde0e6" stroke="#002e4e" stroke-miterlimit="10" stroke-width="1"/>
    <line id="선_30" data-name="선 30" y2="42.545" transform="translate(1256.131 497.102)" fill="none" stroke="#002e4e" stroke-miterlimit="10" stroke-width="1"/>
    <line id="선_31" data-name="선 31" y2="42.545" transform="translate(1261.006 497.102)" fill="none" stroke="#002e4e" stroke-miterlimit="10" stroke-width="1"/>
    <path id="패스_3517" data-name="패스 3517" d="M1329.407,539V548.6a2.672,2.672,0,0,1-2.67,2.675H1297.8a2.672,2.672,0,0,1-2.67-2.675V539a2.662,2.662,0,0,1,2.529-2.665.711.711,0,0,1,.141-.009h28.938A2.672,2.672,0,0,1,1329.407,539Z" transform="translate(-53.463 -68.478)" fill="#fff" stroke="#002e4e" stroke-miterlimit="10" stroke-width="1"/>
    <line id="선_32" data-name="선 32" x2="124.43" transform="translate(1193.916 539.647)" fill="none" stroke="#002e4e" stroke-miterlimit="10" stroke-width="1.5"/>
    <line id="선_33" data-name="선 33" x2="89.204" transform="translate(1211.529 549.281)" fill="none" stroke="#002e4e" stroke-miterlimit="10" stroke-width="1" stroke-dasharray="6 7"/>
  </g>
</svg>
